<?xml version="1.0" encoding="UTF-8" standalone="no"?>
<svg
   xmlns:vectornator="http://vectornator.io"
   xmlns:dc="http://purl.org/dc/elements/1.1/"
   xmlns:cc="http://creativecommons.org/ns#"
   xmlns:rdf="http://www.w3.org/1999/02/22-rdf-syntax-ns#"
   xmlns:svg="http://www.w3.org/2000/svg"
   xmlns="http://www.w3.org/2000/svg"
   xmlns:sodipodi="http://sodipodi.sourceforge.net/DTD/sodipodi-0.dtd"
   xmlns:inkscape="http://www.inkscape.org/namespaces/inkscape"
   inkscape:version="1.0 (6e3e5246a0, 2020-05-07)"
   sodipodi:docname="r2con2020.svg"
   id="svg1585"
   viewBox="0 0 2732 2048"
   version="1.1"
   xml:space="preserve"
   style="fill-rule:evenodd;clip-rule:evenodd;stroke-linecap:round;stroke-linejoin:round;"><sodipodi:namedview
   inkscape:current-layer="svg1585"
   inkscape:window-maximized="1"
   inkscape:window-y="27"
   inkscape:window-x="0"
   inkscape:cy="593.55419"
   inkscape:cx="1908.0995"
   inkscape:zoom="0.30038228"
   inkscape:guide-bbox="true"
   showguides="true"
   showgrid="false"
   id="namedview1587"
   inkscape:window-height="1016"
   inkscape:window-width="1920"
   inkscape:pageshadow="2"
   inkscape:pageopacity="0"
   guidetolerance="10"
   gridtolerance="10"
   objecttolerance="10"
   borderopacity="1"
   bordercolor="#666666"
   pagecolor="#ffffff"
   inkscape:document-rotation="0"><sodipodi:guide
     id="guide1589"
     orientation="0,-1"
     position="1866.1517,834.50115" /><sodipodi:guide
     id="guide1591"
     orientation="0,-1"
     position="1890.5747,804.78161" /><sodipodi:guide
     id="guide1593"
     orientation="1,0"
     position="1968.846,882.46437" /><sodipodi:guide
     id="guide1595"
     orientation="1,0"
     position="1993.269,879.22758" /><sodipodi:guide
     id="guide1597"
     orientation="1,0"
     position="2020.6345,839.50345" /><sodipodi:guide
     id="guide1599"
     orientation="0,-1"
     position="1921.3018,822.68635" /><sodipodi:guide
     id="guide1601"
     orientation="0,-1"
     position="1932.7455,817.48465" /><sodipodi:guide
     id="guide1603"
     orientation="1,0"
     position="1888.87,823.98" /><sodipodi:guide
     id="guide1605"
     orientation="1,0"
     position="1663.9214,822.68635" /><sodipodi:guide
     id="guide1607"
     orientation="1,0"
     position="1568.04,822.6863" /><sodipodi:guide
     id="guide1609"
     orientation="0,-1"
     position="1460.2299,783.5954" /><sodipodi:guide
     id="guide1611"
     orientation="0,-1"
     position="1482.0046,788.5977" /><sodipodi:guide
     id="guide1613"
     orientation="1,0"
     position="1421.3885,798.01379" /><sodipodi:guide
     id="guide1615"
     orientation="1,0"
     position="1218.354,794.33563" /><sodipodi:guide
     id="guide1617"
     orientation="1,0"
     position="1310.1609,801.3977" /><sodipodi:guide
     id="guide1619"
     orientation="1,0"
     position="1201.5816,830.97011" /><sodipodi:guide
     id="guide1621"
     orientation="1,0"
     position="1580.7264,852.74483" /><sodipodi:guide
     id="guide1623"
     orientation="1,0"
     position="1641.6368,837.73793" /><sodipodi:guide
     id="guide1625"
     orientation="0,-1"
     position="1657.9425,873.50946" /><sodipodi:guide
     id="guide1627"
     orientation="0,-1"
     position="1505.5815,771.29351" /><sodipodi:guide
     id="guide1629"
     orientation="0,-1"
     position="1372.9839,783.5954" /><sodipodi:guide
     id="guide1631"
     orientation="0,-1"
     position="1317.9586,780.06437" /><sodipodi:guide
     id="guide1633"
     orientation="1,0"
     position="1342.6759,822.68635" /><sodipodi:guide
     position="1882.8151,824.54915"
     orientation="0,-1"
     id="guide160" /><sodipodi:guide
     position="1914.0194,819.56535"
     orientation="0,-1"
     id="guide162" /><sodipodi:guide
     position="2006.2883,868.99961"
     orientation="0,-1"
     id="guide164" /></sodipodi:namedview>
<metadata
   id="metadata1484">
<vectornator:setting
   value="0"
   key="DisplayWhiteBackground" />
<vectornator:setting
   value="1"
   key="RulersVisible" />
<vectornator:setting
   value="0"
   key="SnapToEdges" />
<vectornator:setting
   value="Pixels"
   key="Units" />
<vectornator:setting
   value="0"
   key="DynamicGuides" />
<vectornator:setting
   value="0"
   key="SnapToPoints" />
<vectornator:setting
   value="0"
   key="CMYKEnabledKey" />
<vectornator:setting
   value="0"
   key="SnapToGrid" />
<vectornator:setting
   value="1"
   key="SnapToGuides" />
<vectornator:setting
   value="36"
   key="GridSpacing" />
<rdf:RDF><cc:Work
     rdf:about=""><dc:format>image/svg+xml</dc:format><dc:type
       rdf:resource="http://purl.org/dc/dcmitype/StillImage" /><dc:title /></cc:Work></rdf:RDF></metadata>
<defs
   id="defs1486">





























</defs>


<path
   d="M 1305.85,679.576"
   opacity="1"
   fill="#ff0000"
   id="path1526"
   style="fill:#000000;stroke:none;stroke-opacity:1;fill-opacity:1;stroke-width:0.99700004;stroke-miterlimit:4;stroke-dasharray:none" /><path
   d="M 1982.07,1021.97"
   opacity="1"
   fill="#ff0000"
   id="path1528"
   style="fill:#000000;stroke:none;stroke-opacity:1;fill-opacity:1;stroke-width:0.99700004;stroke-miterlimit:4;stroke-dasharray:none" /><path
   d="M 1305.85,679.576"
   opacity="1"
   fill="#ff0000"
   id="path1530"
   style="fill:#000000;stroke:none;stroke-opacity:1;fill-opacity:1;stroke-width:0.99700004;stroke-miterlimit:4;stroke-dasharray:none" /><path
   d="M 1982.07,1021.97"
   opacity="1"
   fill="#ff0000"
   id="path1532"
   style="fill:#000000;stroke:none;stroke-opacity:1;fill-opacity:1;stroke-width:0.99700004;stroke-miterlimit:4;stroke-dasharray:none" /><path
   d="M 697.491,968.999"
   opacity="1"
   fill="#ff0000"
   id="path1534"
   style="fill:#000000;stroke:none;stroke-opacity:1;fill-opacity:1;stroke-width:0.99700004;stroke-miterlimit:4;stroke-dasharray:none" /><path
   d="m 734.77075,782.529 -146.11568,265.331 38.67968,59.65 88.1707,-162.028 247.88964,146.208 50.32561,-56.08 L 850.16887,937.192 1066.48,875.757 997.19185,795.809 Z m 26.89922,51.842 165.11006,22.632 -153.4841,37.25835 -31.74211,-17.73205 z"
   opacity="1"
   fill="#ff0000"
   id="path1538"
   style="fill:#000000;stroke-width:0.95062053;stroke:none;stroke-opacity:1;fill-opacity:1;stroke-miterlimit:4;stroke-dasharray:none"
   sodipodi:nodetypes="ccccccccccccccc" /><path
   d="M 678.246,873.681"
   opacity="1"
   fill="#ff0000"
   id="path1540"
   style="fill:#000000;stroke:none;stroke-opacity:1;fill-opacity:1;stroke-width:0.99700004;stroke-miterlimit:4;stroke-dasharray:none" /><path
   d="m 1069.0626,745.758 -38.9948,41.144 c -1.8287,1.93 -1.946,5.178 -0.2607,7.254 l 46.2109,56.947 c 1.6853,2.076 4.5065,2.166 6.3036,0.201 l 26.3224,-28.785 c 1.7971,-1.964 5.0652,-4.145 7.2906,-4.87 0,0 171.6498,-54.027 130.0479,-11.028 -114.0608,117.912 -294.12599,325.929 -294.12599,325.929 -0.73371,0.85 -0.068,3.31 1.48699,5.5 l 48.8236,68.74 c 1.555,2.19 4.7785,3.22 7.1984,2.32 l 302.6326,-113.69 c 2.4209,-0.91 3.1751,-3.47 1.6946,-5.71 l -19.5719,-29.55 c -1.4897,-2.24 -0.6424,-4.46 1.8809,-4.95 l 9.1341,-1.78 c 2.5233,-0.49 3.9479,-3.01 3.1751,-5.64 l -11.4061,-38.85 c -0.7728,-2.62 -3.324,-3.91 -5.6983,-2.88 l -231.4177,100.9 c -2.3744,1.04 -2.8865,0.24 -1.136,-1.78 l 271.0271,-313.316 c 1.7411,-2.018 2.7002,-5.83 2.1322,-8.515 l -45.1138,-66.682 c -0.5679,-2.685 -3.0726,-4.484 -5.6052,-4.019 l -204.144,28.772 c -2.5326,0.466 -6.0615,2.408 -7.8865,4.338 z"
   opacity="1"
   fill="#ff0000"
   id="path1542"
   style="fill:#000000;stroke-width:0.96204513;stroke:none;stroke-opacity:1;fill-opacity:1;stroke-miterlimit:4;stroke-dasharray:none"
   sodipodi:nodetypes="cccccccccccccccccccccccccccc" /><path
   d="m 1335.35,1075.26 -28.9021,-174.69488 c 2.0421,-8.50942 30.9332,-12.7509 38.2679,-9.80828 4.0409,2.28606 2.7357,4.89372 7.6021,6.21753 17.9698,-8.27752 25.4892,-12.03531 36.8721,-20.80637 l 115.97,-91.924 c 2.83,-2.238 6.83,-1.691 8.95,1.222 l 51.15,70.272 c 2.12,2.912 1.57,7.113 -1.22,9.383 l -43.7,35.45 c -2.79,2.269 -6.02,1.352 -7.21,-2.049 l -4.61,-13.22 c -1.19,-3.401 -4.37,-4.265 -7.12,-1.929 l -106.63,90.82 c -2.75,2.336 -2.06,3.945 1.52,3.594 l 143.08,-14.019 c 3.58,-0.351 8.24,-2.971 10.41,-5.853 l 22.4,-29.85 c 2.16,-2.882 5.72,-2.926 7.96,-0.099 l 28.33,35.871 c 2.24,2.826 3.36,7.956 2.51,11.457 l -22.06,91.056 c -0.85,3.5 -4.45,6.39 -8.06,6.44 l -244.68,3.68"
   opacity="1"
   fill="#ff0000"
   id="path1544"
   style="fill:#000000;stroke:none;stroke-opacity:1;fill-opacity:1;stroke-width:0.99700004;stroke-miterlimit:4;stroke-dasharray:none"
   sodipodi:nodetypes="cccccccccccccccccccccccc" /><path
   d="m 1858.16,803.76 -185.5,28.129 -67.84,250.771 94.61,46.33 171.07,-259.701 z m -41.58,57.556 -109.0741,156.4148 21.1841,-135.1898 z"
   opacity="1"
   fill="#ff0000"
   id="path1546"
   style="fill:#000000;stroke:none;stroke-opacity:1;fill-opacity:1;stroke-width:0.99700004;stroke-miterlimit:4;stroke-dasharray:none"
   sodipodi:nodetypes="cccccccccc" /><path
   d="M 1740.2,865.771"
   opacity="1"
   fill="#ff0000"
   id="path1548"
   style="fill:#000000;stroke:none;stroke-opacity:1;fill-opacity:1;stroke-width:0.99700004;stroke-miterlimit:4;stroke-dasharray:none" /><path
   d="m 1860.29,1087.54 -99.3,3.28 c -2.95,0.09 -4.03,-1.82 -2.41,-4.29 l 180.64,-276.814 c 1.62,-2.465 5.32,-4.345 8.27,-4.2 l 10.67,0.527 c 2.94,0.145 4.52,2.513 3.53,5.289 l -0.23,7.779 c -1,2.776 0.59,4.993 3.54,4.952 l 30.49,-0.428 c 2.95,-0.041 5.44,2.314 5.55,5.262 l 7.53,191.453 c 0.12,2.95 1.36,3.24 2.79,0.66 l 89.78,-162.939 c 1.43,-2.583 4.97,-4.842 7.91,-5.045 l 56.65,-3.907 c 2.95,-0.203 4.18,1.731 2.77,4.319 l -141.05,258.252 c -1.42,2.59 -4.95,4.6 -7.9,4.5 l -50.31,-1.71 c -2.95,-0.1 -5.57,-2.56 -5.86,-5.5 l -13.51,-137.522 c -0.29,-2.936 -1.88,-3.347 -3.56,-0.92 l -77.62,112.432 c -1.68,2.43 -5.42,4.48 -8.37,4.57 z"
   opacity="1"
   fill="#ff0000"
   id="path1550"
   style="fill:#000000;stroke:none;stroke-opacity:1;fill-opacity:1;stroke-width:0.99700004;stroke-miterlimit:4;stroke-dasharray:none"
   sodipodi:nodetypes="ccccccccccccccccccccccccc" /><path
   sodipodi:nodetypes="cccccccccccccccsccc"
   d="m 1383.0227,1157.1758 c -5.4884,0.2692 -12.4334,1.3369 -17.5287,3.4223 -5.8286,2.3594 -11.0502,6.5399 -13.9864,12.1697 -3.2815,8.0627 -3.7306,15.8251 -1.9199,23.1463 6.0293,-0.8071 12.0587,-1.6137 18.0879,-2.4219 -0.7197,-3.2304 -1.4955,-6.554 -0.9737,-9.8958 1.5566,-8.4384 11.4439,-9.74 18.3131,-9.4756 4.5705,0.2782 9.085,2.5225 11.6807,6.3606 3.2498,4.6627 3.5747,10.8227 2.0049,16.1569 -2.1272,7.3459 -7.3579,10.6217 -13.4374,15.0769 -3.4673,2.5776 -7.373,4.4769 -10.9047,6.9606 -8.9818,6.1089 -17.0191,13.0785 -22.8008,22.3424 -1.5242,2.3954 -2.7026,4.9849 -3.6827,7.6449 0.2092,0.2727 1.165,0.044 1.6549,0.1279 8.2856,0.072 12.919,0.092 21.2046,0.1653 1.1116,-9.0306 8.0547,-15.7061 15.3015,-19.8773 15.7881,-9.0875 36.0907,-23.703 26.4574,-53.4403 -2.9231,-6.6672 -8.0257,-12.528 -14.692,-15.6205 -4.5836,-2.19 -9.7258,-3.0221 -14.7787,-2.8424 z"
   style="fill:#000000;fill-opacity:1;stroke:none;stroke-width:1.112;stroke-miterlimit:4;stroke-dasharray:none;stroke-opacity:1"
   id="path1554" /><path
   d="M 1154.195,1193.2801"
   opacity="1"
   fill="#ff0000"
   id="path1556"
   style="fill:#000000;stroke-width:1.11200392;stroke:none;stroke-opacity:1;fill-opacity:1;stroke-miterlimit:4;stroke-dasharray:none" /><path
   d="M 1135.9812,1288.9443"
   opacity="1"
   fill="#ff0000"
   id="path1558"
   style="fill:#000000;stroke-width:1.11200392;stroke:none;stroke-opacity:1;fill-opacity:1;stroke-miterlimit:4;stroke-dasharray:none" /><path
   sodipodi:nodetypes="cccccccccc"
   d="m 1530.5801,1211.498 c -12.3509,12.4753 -24.7018,24.9506 -37.0528,37.4258 h -58.7656 v 9.5742 c 34.4811,0.095 28.9623,0.188 63.4434,0.2813 12.7169,-12.6906 25.4321,-25.383 38.1484,-38.0742 h 25.9766 v -9.8008 h -31.1621 c -0.196,0.1979 -0.392,0.3958 -0.5879,0.5937 z"
   style="fill:#000000;stroke-width:1.11200392;stroke:none;stroke-opacity:1;fill-opacity:1;stroke-miterlimit:4;stroke-dasharray:none"
   id="path1560" /><path
   sodipodi:nodetypes="cccccccccc"
   d="m 1225.6895,1212.9043 v 7.8008 h 26.4433 c 12.4436,12.5993 20.8852,25.2007 33.3301,37.7988 h 42.625 v -9.5801 h -38.5899 c -12.4283,-12.6732 -20.8569,-25.3462 -33.2851,-38.0195 h -30.5234 z"
   style="fill:#000000;stroke-width:1.11200392;stroke:none;stroke-opacity:1;fill-opacity:1;stroke-miterlimit:4;stroke-dasharray:none"
   id="path1562" /><path
   d="m 1175.1973,1194.3398 c -5.0696,0.2014 -10.0079,2.616 -13.1975,6.5758 -5.7656,6.9859 -6.4802,17.85 -1.2302,25.323 3.0431,4.4367 8.1153,7.1744 13.3702,7.9766 4.7007,0.822 9.7983,0.303 13.886,-2.304 4.0684,-2.5426 6.9069,-6.7163 8.443,-11.2061 4.0944,0 8.1888,0 12.2832,0 0,-3.2669 0,-6.5339 0,-9.8008 -4.0586,-0.01 -8.1333,0.01 -12.1817,-0.01 -1.5545,-5.7988 -5.0786,-11.333 -10.4681,-14.2252 -3.3152,-1.8098 -7.1545,-2.4969 -10.9049,-2.3295 z m 1.1425,8.7579 c 4.189,0 7.932,2.7207 10.2274,6.0677 1.3316,1.9703 2.4038,4.4686 1.631,6.8584 -0.8185,3.5596 -3.0022,7.0085 -6.4502,8.4977 -4.076,1.7979 -9.3852,0.9386 -12.3476,-2.4942 -2.4501,-2.843 -3.3014,-6.9095 -2.2567,-10.5077 0.9544,-3.4133 3.2626,-6.6933 6.661,-7.9923 0.8159,-0.2775 1.6745,-0.412 2.5351,-0.4296 z"
   style="fill:#000000;stroke-width:1.11200392;stroke:none;stroke-opacity:1;fill-opacity:1;stroke-miterlimit:4;stroke-dasharray:none"
   id="path1566" /><path
   sodipodi:nodetypes="cccccccccccccccccccc"
   d="m 1778.1895,1197.6426 c -5.0744,0.087 -9.8758,2.6087 -13.2915,6.283 -1.9981,2.1051 -3.6407,4.5375 -4.9214,7.1389 -37.5677,-0.054 -55.1355,-0.11 -92.7032,-0.1622 v 9.7969 c 37.3998,0.11 54.7995,0.2201 92.1993,0.3301 1.6889,5.473 5.8599,10.1701 11.2329,12.2374 3.8656,1.4996 8.1435,1.9489 12.2405,1.339 5.2468,-0.7843 9.9923,-4.1368 12.5468,-8.7777 3.714,-6.4948 3.5327,-15.2498 -1.1037,-21.2487 -3.0653,-4.0702 -8.0336,-6.3598 -13.037,-6.8106 -1.0504,-0.103 -2.1072,-0.1491 -3.1627,-0.1261 z m 1.4589,9.0156 c 3.0394,0.3576 5.5756,2.5316 7.2089,5.0128 1.2836,1.9213 1.9078,4.3948 1.1053,6.6291 -1.0586,3.1766 -3.4465,6.0148 -6.5865,7.2773 -2.6887,1.0516 -5.6144,-0.2564 -7.7281,-1.9452 -2.2699,-1.8487 -4.2454,-4.4796 -4.355,-7.5072 0.1262,-3.0877 2.248,-5.7124 4.6302,-7.4937 1.6496,-1.1868 3.6505,-2.1085 5.7252,-1.9731 z"
   style="fill:#000000;stroke-width:1.11200392;stroke:none;stroke-opacity:1;fill-opacity:1;stroke-miterlimit:4;stroke-dasharray:none"
   id="path1568" /><path
   d="M 1843.38,1002.29"
   opacity="1"
   fill="#ff0000"
   id="path1574"
   style="fill:#000000;stroke:none;stroke-opacity:1;fill-opacity:1;stroke-width:0.99700004;stroke-miterlimit:4;stroke-dasharray:none" /><path
   sodipodi:nodetypes="sccccccccccss"
   d="m 2020.2637,1197.9277 c -9.2168,4.4675 -18.4336,8.9349 -27.6504,13.4024 v -14.7891 c -9.8984,4.7762 -19.7983,9.5493 -29.6973,14.3242 -30.248,0.013 -40.4961,0.028 -70.7441,0.039 v 9.7988 c 30.2467,0.038 40.4935,0.08 70.7402,0.1192 9.9005,5.1112 19.8003,10.2236 29.7012,15.3339 v -18.0976 c 10.1747,6.1161 20.3471,12.2361 30.5234,18.3496 v -39.873 c -0.9577,0.4641 -1.9153,0.9283 -2.873,1.3925 z"
   style="fill:#000000;stroke-width:1.11200392;stroke:none;stroke-opacity:1;fill-opacity:1;stroke-miterlimit:4;stroke-dasharray:none"
   id="path1582" /><path
   d="m 1346.9688,1260.4414 c -1e-4,3.9277 0,7.8555 0,11.7832 22.6022,0 45.2044,0 67.8066,0 0,-4.5944 0,-9.1888 0,-13.7832 -22.6022,0 -45.2044,0 -67.8066,0 -1e-4,0.6667 0,1.3333 0,2 z"
   style="fill:#000000;fill-opacity:1;stroke:none;stroke-width:1.112;stroke-miterlimit:4;stroke-dasharray:none;stroke-opacity:1"
   id="path1580" />
<path
   sodipodi:nodetypes="sccccccccccccccccccccccccss"
   d="m 1612.3519,1156.8596 c -8.4244,0.1238 -17.0478,2.6114 -23.5601,8.1116 -5.1536,4.5342 -8.6641,10.7518 -10.3168,17.3827 -2.4899,9.6027 -1.8174,19.6016 -2.0249,29.4191 0.055,7.776 -0.5059,15.5749 0.2433,23.3322 0.8652,9.861 2.4411,16.0151 7.3154,20.7107 2.6663,-2.9902 8.0828,-7.7987 10.6435,-11.1454 -3.8041,-5.0303 -3.725,-8.986 -4.1787,-14.791 -0.8045,-15.0215 -0.027,-30.5194 2.4909,-42.1172 1.2774,-5.25 4.3096,-10.1923 8.9059,-13.1516 4.238,-2.7993 9.4322,-3.93 14.468,-3.6622 21.7164,3.2225 19.9592,21.8155 20.511,37.4455 0.2347,10.1775 -0.6363,20.4095 -2.9029,30.3426 -0.8588,3.4121 -1.7081,6.9129 -3.5077,9.9716 -2.4508,3.9093 -7.0262,5.9428 -11.4784,6.4422 -8.3457,0.7129 -12.4991,-0.058 -17.4722,-4.1061 -3.7169,3.5358 -6.8327,7.7478 -10.8001,11.145 5.1966,7.361 16.6419,10.087 24.2994,10.3779 6.5965,0.2179 13.2563,-1.3377 19.0787,-4.4451 4.0117,-2.1285 7.4537,-5.3234 9.7526,-9.2508 3.7477,-6.2973 5.4313,-13.5702 6.4549,-20.7572 1.2213,-8.7907 1.2632,-17.6918 0.9861,-26.5466 -0.1146,-8.9218 0.7004,-18.0196 -1.5906,-26.7522 -1.971,-7.1444 -5.2588,-14.1598 -10.6835,-19.3382 -4.9813,-4.8034 -11.7347,-7.3786 -18.5281,-8.19 -2.6882,-0.3249 -5.3983,-0.4509 -8.1053,-0.4279 z"
   style="clip-rule:evenodd;fill:#000000;fill-opacity:1;fill-rule:evenodd;stroke:none;stroke-width:1.13378;stroke-linecap:round;stroke-linejoin:round;stroke-miterlimit:4;stroke-dasharray:none;stroke-opacity:1"
   id="path1570-9-3" /><path
   id="path1580-5"
   style="clip-rule:evenodd;fill:#000000;fill-opacity:1;fill-rule:evenodd;stroke:none;stroke-width:1.112;stroke-linecap:round;stroke-linejoin:round;stroke-miterlimit:4;stroke-dasharray:none;stroke-opacity:1"
   d="m 1812.3739,1260.3724 c -10e-5,3.9277 0,7.8555 0,11.7832 22.6022,0 45.2044,0 67.8066,0 0,-4.5944 0,-9.1888 0,-13.7832 -22.6022,0 -45.2044,0 -67.8066,0 -10e-5,0.6667 0,1.3333 0,2 z" /><path
   id="path1570-9-3-6"
   style="clip-rule:evenodd;fill:#000000;fill-opacity:1;fill-rule:evenodd;stroke:none;stroke-width:1.13378;stroke-linecap:round;stroke-linejoin:round;stroke-miterlimit:4;stroke-dasharray:none;stroke-opacity:1"
   d="m 2077.8998,1156.8596 c -8.4244,0.1238 -17.0478,2.6114 -23.5601,8.1116 -5.1536,4.5342 -8.6641,10.7518 -10.3168,17.3827 -2.4899,9.6027 -1.8174,19.6016 -2.0249,29.4191 0.055,7.776 -0.5059,15.5749 0.2433,23.3322 0.8652,9.861 2.4411,16.0151 7.3154,20.7107 2.6663,-2.9902 8.0828,-7.7987 10.6435,-11.1454 -3.8041,-5.0303 -3.725,-8.986 -4.1787,-14.791 -0.8045,-15.0215 -0.027,-30.5194 2.4909,-42.1172 1.2774,-5.25 4.3096,-10.1923 8.9059,-13.1516 4.238,-2.7993 9.4322,-3.93 14.468,-3.6622 21.7164,3.2225 19.9592,21.8155 20.511,37.4455 0.2347,10.1775 -0.6363,20.4095 -2.9029,30.3426 -0.8588,3.4121 -1.7081,6.9129 -3.5077,9.9716 -2.4508,3.9093 -7.0262,5.9428 -11.4784,6.4422 -8.3457,0.7129 -12.4991,-0.058 -17.4722,-4.1061 -3.7169,3.5358 -6.8327,7.7478 -10.8001,11.145 5.1966,7.361 16.6419,10.087 24.2994,10.3779 6.5965,0.2179 13.2563,-1.3377 19.0787,-4.4451 4.0117,-2.1285 7.4537,-5.3234 9.7526,-9.2508 3.7477,-6.2973 5.4313,-13.5702 6.4549,-20.7572 1.2213,-8.7907 1.2632,-17.6918 0.9861,-26.5466 -0.1146,-8.9218 0.7004,-18.0196 -1.5906,-26.7522 -1.971,-7.1444 -5.2588,-14.1598 -10.6835,-19.3382 -4.9813,-4.8034 -11.7347,-7.3786 -18.5281,-8.19 -2.6882,-0.3249 -5.3983,-0.4509 -8.1053,-0.4279 z"
   sodipodi:nodetypes="sccccccccccccccccccccccccss" /><path
   id="path1554-2"
   style="clip-rule:evenodd;fill:#000000;fill-opacity:1;fill-rule:evenodd;stroke:none;stroke-width:1.112;stroke-linecap:round;stroke-linejoin:round;stroke-miterlimit:4;stroke-dasharray:none;stroke-opacity:1"
   d="m 1847.8977,1157.0471 c -5.4884,0.2692 -12.4334,1.3369 -17.5287,3.4223 -5.8286,2.3594 -11.0502,6.5399 -13.9864,12.1697 -3.2815,8.0627 -3.7306,15.8251 -1.9199,23.1463 6.0293,-0.8071 12.0587,-1.6137 18.0879,-2.4219 -0.7197,-3.2304 -1.4955,-6.554 -0.9737,-9.8958 1.5566,-8.4384 11.4439,-9.74 18.3131,-9.4756 4.5705,0.2782 9.085,2.5225 11.6807,6.3606 3.2498,4.6627 3.5747,10.8227 2.0049,16.1569 -2.1272,7.3459 -7.3579,10.6217 -13.4374,15.0769 -3.4673,2.5776 -7.373,4.4769 -10.9047,6.9606 -8.9818,6.1089 -17.0191,13.0785 -22.8008,22.3424 -1.5242,2.3954 -2.7026,4.9849 -3.6827,7.6449 0.2092,0.2727 1.165,0.044 1.6549,0.1279 8.2856,0.072 12.919,0.092 21.2046,0.1653 1.1116,-9.0306 8.0547,-15.7061 15.3015,-19.8773 15.7881,-9.0875 36.0907,-23.703 26.4574,-53.4403 -2.9231,-6.6672 -8.0257,-12.528 -14.692,-15.6205 -4.5836,-2.19 -9.7258,-3.0221 -14.7787,-2.8424 z"
   sodipodi:nodetypes="cccccccccccccccsccc" /></svg>
