<?xml version="1.0" encoding="UTF-8" standalone="no"?>
<!-- Created with Inkscape (http://www.inkscape.org/) -->

<svg
   width="210mm"
   height="297mm"
   viewBox="0 0 210 297"
   version="1.1"
   id="svg1"
   xml:space="preserve"
   inkscape:version="1.4.2 (ebf0e940d0, 2025-05-08)"
   sodipodi:docname="r2roots.svg"
   xmlns:inkscape="http://www.inkscape.org/namespaces/inkscape"
   xmlns:sodipodi="http://sodipodi.sourceforge.net/DTD/sodipodi-0.dtd"
   xmlns:xlink="http://www.w3.org/1999/xlink"
   xmlns="http://www.w3.org/2000/svg"
   xmlns:svg="http://www.w3.org/2000/svg"
   xmlns:inkscape0="https://www.inkscape.org/namespaces/inkscape"><sodipodi:namedview
     id="namedview1"
     pagecolor="#ffffff"
     bordercolor="#000000"
     borderopacity="0.25"
     inkscape:showpageshadow="2"
     inkscape:pageopacity="0.0"
     inkscape:pagecheckerboard="0"
     inkscape:deskcolor="#d1d1d1"
     inkscape:document-units="mm"
     showguides="true"
     inkscape:zoom="1.0217435"
     inkscape:cx="439.93429"
     inkscape:cy="582.33793"
     inkscape:window-width="1068"
     inkscape:window-height="991"
     inkscape:window-x="26"
     inkscape:window-y="23"
     inkscape:window-maximized="0"
     inkscape:current-layer="layer1" /><defs
     id="defs1"><pattern
       inkscape:collect="always"
       xlink:href="#pattern6"
       preserveAspectRatio="xMidYMid"
       id="pattern7"
       patternTransform="translate(-3.203125e-6)" /><clipPath
       clipPathUnits="userSpaceOnUse"
       id="clipPath3018"><path
         d="m 0,841.89 1190.55,0 L 1190.55,0 0,0 0,841.89 z"
         id="path3020"
         inkscape0:connector-curvature="0" /></clipPath><pattern
       patternUnits="userSpaceOnUse"
       width="1.2374369"
       height="110.30865"
       patternTransform="translate(295.04028,-128.87021)"
       preserveAspectRatio="xMidYMid"
       id="pattern6"><rect
         style="fill-opacity:1;stroke:none;stroke-width:0.755906"
         id="rect6"
         width="1.2374369"
         height="110.30865"
         x="0"
         y="0"
         ry="0.61871845" /></pattern><marker
       markerWidth="1.2374369"
       markerHeight="110.30865"
       refX="0.61871845"
       refY="55.154324"
       orient="auto"
       id="marker7"><rect
         style="fill:url(#pattern7);stroke:none"
         width="1.2374369"
         height="110.30865"
         x="0"
         y="0"
         id="rect7" /></marker></defs><g
     inkscape:label="Layer 1"
     inkscape:groupmode="layer"
     id="layer1"><path
       id="path1"
       style="fill:#000000;stroke:#000000;stroke-width:0.2;stroke-dasharray:0, 2.2"
       d="M 132.84254 81.311316 C 132.84254 81.311316 131.93621 82.347128 132.84254 81.311316 z M 83.996423 82.921554 L 83.996423 99.074573 L 83.679647 99.074573 C 78.397917 89.31885 69.282761 83.243498 57.930831 83.243498 C 47.376631 83.243498 37.301599 89.479395 37.301599 100.99332 C 37.301599 112.02774 44.977178 119.70329 56.011568 119.70329 C 66.565768 119.70329 73.923136 112.82678 73.923136 102.11418 C 73.923136 99.71378 73.603232 96.995983 72.962472 94.596293 C 75.362862 90.598958 80.158776 99.713608 80.639006 101.31268 C 82.876706 107.54915 82.396521 113.30785 82.396521 119.864 L 82.396521 156.64574 L 71.042692 156.64574 L 71.042692 160.48374 L 82.547416 160.48374 L 82.00223 164.28661 C 82.00223 164.28661 77.620731 169.58145 74.691565 171.22882 C 71.828411 172.83906 65.181034 173.8111 65.181034 173.8111 L 52.363729 170.88156 L 37.348625 175.09319 C 37.348625 175.09319 47.938792 173.04002 53.279435 173.26178 C 55.456021 173.35218 59.68783 174.54387 59.68783 174.54387 L 53.455652 179.61694 L 63.716524 175.78049 C 63.716524 175.78049 74.64386 175.5701 79.685059 173.72996 C 83.821859 172.21994 90.791357 166.57536 90.791357 166.57536 C 90.791357 166.57536 87.141628 174.20859 84.108044 177.01297 C 79.355984 181.40598 73.348104 184.97417 66.987642 186.16796 C 62.868472 186.94108 54.504683 184.66263 54.504683 184.66263 L 48.677132 180.49183 L 53.621016 186.71729 L 57.969071 187.5038 L 41.901835 189.64734 L 50.325094 190.19666 L 44.611747 192.97737 L 38.661206 198.65402 L 36.463924 201.58356 L 36.280473 204.69655 L 41.407808 198.1047 L 43.05577 203.04859 L 40.309167 211.47133 L 44.153894 205.4288 L 44.337345 195.6325 L 53.717651 190.30931 L 58.01558 189.83027 L 70.4665 188.18231 L 79.439079 184.15413 L 71.565141 196.42212 L 58.381449 202.28171 L 51.789604 208.87356 L 62.043758 202.64758 L 69.00199 199.53511 C 69.00199 199.53511 65.825644 208.17255 62.684546 211.34524 C 59.869179 214.18892 52.156506 217.11336 52.156506 217.11336 L 50.325094 226.63475 L 54.903109 218.39494 L 61.585905 214.45823 L 63.142916 220.59222 L 64.332507 212.9932 L 69.536324 203.99375 L 71.080416 210.19079 L 69.876355 213.42263 L 70.762089 212.59633 L 71.442668 216.29687 L 72.463794 209.14847 L 71.289189 202.45328 C 70.154231 195.98442 83.833643 185.61864 83.833643 185.61864 C 83.833643 185.61864 83.839458 190.63749 84.446008 193.04661 C 85.268348 196.3129 88.483488 202.30962 88.483488 202.30962 L 87.503703 193.62177 L 90.993929 194.80516 L 87.067037 190.1362 C 87.067037 190.1362 87.095457 183.97092 88.319674 180.40036 C 89.915444 175.74613 96.101628 167.85745 96.101628 167.85745 C 97.557488 178.14128 96.65231 180.54445 99.39755 193.49258 C 100.4717 198.5589 98.559875 205.76573 98.559875 205.76573 C 98.411665 207.32055 97.214457 208.76312 92.589697 210.61712 C 96.716047 210.69532 95.360902 211.15677 98.948482 209.41099 L 101.10081 201.78768 L 102.37721 211.05792 L 104.73159 216.13719 L 103.41849 221.00615 L 103.96265 223.03807 L 106.5413 215.95374 L 112.69648 216.99192 L 115.95881 222.69442 L 114.48345 215.27058 L 105.94909 213.37922 L 103.60763 208.37953 L 102.51054 194.77416 L 105.20908 200.47303 L 111.61799 201.93393 L 106.0173 197.99412 C 106.0173 197.99412 103.34829 193.18595 102.14415 189.83027 C 99.669616 182.93425 99.465965 174.8679 101.59483 167.85745 C 101.96389 166.64213 103.79211 164.74447 103.79211 164.74447 C 103.79211 164.74447 108.19428 172.91588 109.34061 177.36643 C 110.13655 180.45661 110.20154 186.90074 110.20154 186.90074 L 112.39882 180.67528 L 117.34271 192.02756 L 117.95456 196.17097 L 116.33967 200.54383 L 118.83202 198.54499 L 124.48336 210.52152 L 125.03268 217.66268 L 129.42724 223.70521 L 125.76493 215.28195 L 125.94838 211.62016 L 130.52588 216.38059 L 134.37113 216.56404 L 129.42724 213.63399 L 125.39906 207.59146 L 120.87118 200.40637 L 118.31319 187.98646 L 129.68252 196.38078 L 132.60017 202.05433 L 132.54643 198.1507 L 137.11773 201.366 L 141.69523 211.62016 L 142.428 220.95861 L 143.16025 219.49358 L 143.52664 211.80309 L 145.25263 211.84753 L 142.9644 210.33807 L 140.59659 203.92967 L 147.47885 207.19045 L 138.94862 200.4503 L 119.7777 183.95828 L 110.47646 166.81927 C 110.47646 166.81927 123.56584 174.60192 128.55443 180.19779 C 130.81173 182.72987 133.63267 189.01689 133.63267 189.01689 L 137.93577 192.31281 L 140.84618 196.55544 C 139.24309 189.31809 140.39825 192.16514 135.0977 187.18599 L 145.71772 191.85496 L 152.49302 201.10194 L 157.98622 206.22927 L 161.28215 206.22927 L 156.5212 203.48267 L 152.49302 197.62308 L 159.57631 198.80905 L 164.59822 207.4323 L 168.72097 209.62235 L 164.8535 205.39625 L 162.49757 199.60125 L 164.96978 197.96208 L 161.10128 198.17912 L 152.03516 195.97512 L 144.52761 188.3761 L 137.89184 185.48532 L 133.77013 180.91454 L 136.66556 179.41385 L 131.85242 178.11109 L 119.21029 168.20162 C 128.3871 173.13344 139.89291 172.98633 144.66766 176.29777 C 149.44241 179.60921 149.70301 182.70616 149.70301 182.70616 L 156.29537 188.38282 L 158.49265 193.69257 L 159.95716 192.04461 L 157.75988 186.36847 L 151.16803 181.79149 L 147.9641 176.66415 L 154.97917 180.37039 L 156.50156 182.59196 L 165.81675 185.45276 L 169.662 191.12942 L 170.21132 188.56627 L 166.91539 183.98825 L 158.26372 181.6995 L 163.80292 180.82979 L 166.38468 181.19928 L 163.95072 179.50842 L 157.39401 180.14249 C 157.39401 180.14249 151.09671 175.58252 147.68918 173.7341 C 139.4274 169.25248 131.23074 167.86835 121.83442 162.48311 C 121.67951 161.69422 121.55418 161.04723 121.45047 160.48374 L 130.21634 160.48374 L 130.21634 156.64574 L 121.73831 156.64574 L 121.73831 88.678825 L 130.21634 88.678825 L 130.21634 84.841333 C 114.86064 84.841333 99.347123 83.401777 83.996423 82.921554 z " /></g></svg>
